<?xml version="1.0" encoding="utf-8"?>
<svg width="438" height="260" viewBox="0 0 438 260" fill="none" xmlns="http://www.w3.org/2000/svg">
  <g>
    <g fill="#FFFFFF" fill-opacity="0.4">
      <path d="M219 0C283.868 0 346.871 7.12012 407.082 20.5292C425.516 24.6345 438 39.6603 438 56.6017C438 56.6017 438 221.796 438 221.796C438 242.895 418.816 260 395.152 260C395.152 260 42.8478 260 42.8478 260C19.1836 260 0 242.895 0 221.796C0 221.796 0 56.6017 0 56.6017C0 39.6603 12.4844 24.6345 30.9186 20.5292C91.1285 7.1201 154.132 0 219 0Z" />
      <path d="M407.082 20.5292C346.871 7.12012 283.868 0 219 0C154.132 0 91.1285 7.1201 30.9186 20.5292C12.4844 24.6345 0 39.6603 0 56.6017L0 221.796C0 242.895 19.1836 260 42.8478 260L395.152 260C418.816 260 438 242.895 438 221.796L438 56.6017C438 39.6603 425.516 24.6345 407.082 20.5292ZM31.0273 21.0172Q123.154 0.5 219 0.5Q314.844 0.5 406.973 21.0172Q420.549 24.0406 429.073 34.0756Q437.5 43.9969 437.5 56.6017L437.5 221.796Q437.5 237.396 425.117 248.437Q412.709 259.5 395.152 259.5L42.8478 259.5Q25.2904 259.5 12.8826 248.437Q0.5 237.396 0.499996 221.796L0.5 56.6017Q0.5 43.9973 8.92756 34.0756Q17.4513 24.0406 31.0273 21.0172Z" fill="#808080" fill-rule="evenodd" />
    </g>
  </g>
</svg>