<?xml version="1.0" encoding="utf-8"?>
<svg width="438" height="180" viewBox="0 0 438 180" fill="none" xmlns="http://www.w3.org/2000/svg">
  <g transform="matrix(1 0 0 -1 0 180)">
    <g>
      <g>
        <path d="M438 162.719C438 172.263 428.791 180 417.432 180C415.681 180 413.937 179.811 412.241 179.445C350.474 166.1 285.724 159 219 159C152.276 159 87.5258 166.1 25.7587 179.445C24.0625 179.811 22.3192 180 20.5678 180C9.20851 180 0 172.263 0 162.719C0 162.719 0 36 0 36C0 16.1177 19.1837 0 42.8478 0C42.8478 0 395.152 0 395.152 0C418.816 0 438 16.1178 438 36C438 36 438 162.719 438 162.719Z" fill="#FFFFFF" fill-opacity="0.4" />
        <path d="M417.432 180C428.791 180 438 172.263 438 162.719C438 162.719 438 36 438 36C438 16.1178 418.816 0 395.152 0C395.152 0 42.8478 0 42.8478 0C19.1837 0 0 16.1177 0 36C0 36 0 162.719 0 162.719C0 172.263 9.20851 180 20.5678 180C22.3192 180 24.0625 179.811 25.7587 179.445C87.5258 166.1 152.276 159 219 159C285.724 159 350.474 166.1 412.241 179.445C413.937 179.811 415.681 180 417.432 180ZM437.5 162.719C437.5 167.336 435.551 171.281 431.654 174.556C427.731 177.852 422.99 179.5 417.432 179.5C415.721 179.5 414.026 179.319 412.347 178.956C349.23 165.319 284.781 158.5 219 158.5C153.224 158.5 88.775 165.319 25.6531 178.956C23.9734 179.319 22.2783 179.5 20.5678 179.5C15.0096 179.5 10.2689 177.852 6.3458 174.556C2.4486 171.281 0.499999 167.336 0.499998 162.719C0.499998 162.719 0.5 36 0.5 36C0.5 26.2141 4.62383 17.8565 12.8715 10.927C21.1451 3.97567 31.1372 0.500001 42.8478 0.500004C42.8478 0.500004 395.152 0.5 395.152 0.5C406.863 0.5 416.855 3.97567 425.128 10.927C433.376 17.8567 437.5 26.2143 437.5 36C437.5 36 437.5 162.719 437.5 162.719Z" fill="#808080" fill-rule="evenodd" />
      </g>
    </g>
  </g>
</svg>