<?xml version="1.0" encoding="utf-8"?>
<svg width="438" height="180" viewBox="0 0 438 180" fill="none" xmlns="http://www.w3.org/2000/svg">
  <g>
    <g fill="#FFFFFF" fill-opacity="0.4">
      <path d="M417.433 0C428.791 0.000223726 438 7.73674 438 17.2803C438 17.2803 438 144 438 144C438 163.882 418.816 180 395.152 180C395.152 180 292.451 180 292.451 180C288.859 148.574 257.345 124 219 124C180.655 124 149.141 148.574 145.549 180C145.549 180 42.8478 180 42.8478 180C19.1836 180 0 163.882 0 144C0 144 0 17.2803 0 17.2803C0.000267622 7.73674 9.2084 0.00022404 20.5673 0C22.3186 0 24.062 0.189249 25.7582 0.555664C87.5254 13.9003 152.276 21 219 21C285.724 21 350.475 13.9003 412.241 0.555664C413.937 0.189249 415.681 0 417.433 0Z" />
      <path d="M438 17.2803C438 7.73674 428.791 0.000223726 417.433 0C415.681 0 413.937 0.189249 412.241 0.555664C350.475 13.9003 285.724 21 219 21C152.276 21 87.5254 13.9003 25.7582 0.555664C24.062 0.189249 22.3186 0 20.5673 0C9.2084 0.00022404 0.000267622 7.73674 0 17.2803L0 144C0 163.882 19.1836 180 42.8478 180L145.549 180C149.141 148.574 180.655 124 219 124C257.345 124 288.859 148.574 292.451 180L395.152 180C418.816 180 438 163.882 438 144L438 17.2803ZM292.895 179.5L395.152 179.5Q412.718 179.5 425.128 169.073Q437.5 158.678 437.5 144L437.5 17.2803Q437.5 10.3558 431.654 5.44422Q425.77 0.500164 417.433 0.5Q414.867 0.5 412.347 1.04438Q317.668 21.5 219 21.5Q120.333 21.5 25.6526 1.04439Q23.1325 0.5 20.5673 0.5Q12.2303 0.50016 6.3458 5.44422Q0.500194 10.3556 0.5 17.2803L0.499996 144Q0.5 158.678 12.8715 169.073Q25.2819 179.5 42.8478 179.5L145.105 179.5Q147.979 155.907 168.938 139.819Q190.196 123.5 219 123.5Q247.805 123.5 269.062 139.819Q290.02 155.908 292.895 179.5Z" fill="#808080" fill-rule="evenodd" />
    </g>
  </g>
</svg>