<svg width="368" height="180" viewBox="0 0 368 180" fill="none" xmlns="http://www.w3.org/2000/svg">
<path id="Subtract" d="M350.72 0C360.263 0.000223726 368 7.73674 368 17.2803V144C368 163.882 351.882 180 332 180H245.712C242.694 148.574 216.217 124 184 124C151.783 124 125.306 148.574 122.288 180H36C16.1177 180 0 163.882 0 144V17.2803C0.000224851 7.73674 7.73674 0.00022404 17.2803 0C18.7517 0 20.2165 0.189249 21.6416 0.555664C73.5373 13.9003 127.94 21 184 21C240.06 21 294.463 13.9003 346.358 0.555664C347.783 0.189249 349.248 0 350.72 0Z" fill="#E8DEF8" fill-opacity="0.85"/>
</svg>
