<?xml version="1.0" encoding="utf-8"?>
<svg width="438" height="180" viewBox="0 0 438 180" fill="none" xmlns="http://www.w3.org/2000/svg">
  <g>
    <path d="M395.152 0C418.816 0 438 16.1177 438 36C438 36 438 162.72 438 162.72C438 172.263 428.791 180 417.433 180C415.681 180 413.937 179.811 412.241 179.444C350.475 166.1 285.724 159 219 159C152.276 159 87.5254 166.1 25.7582 179.444C24.062 179.811 22.3186 180 20.5673 180C9.2084 180 0.000267622 172.263 0 162.72C0 162.72 0 36 0 36C0 16.1177 19.1836 0 42.8478 0C42.8478 0 145.549 0 145.549 0C149.141 31.4263 180.655 56 219 56C257.345 56 288.859 31.4263 292.451 0C292.451 0 395.152 0 395.152 0Z" fill="#FFFFFF" fill-opacity="0.4" />
  </g>
</svg>