<?xml version="1.0" encoding="utf-8"?>
<svg width="438" height="161" viewBox="0 0 438 161" fill="none" xmlns="http://www.w3.org/2000/svg">
  <g>
    <g fill="#FFFFFF" fill-opacity="0.4">
      <path d="M219 160C154.132 160 91.1285 153.333 30.9188 140.775C12.4844 136.931 0 122.86 0 106.995C0 106.995 0 35.7764 0 35.7764C0 16.0176 19.1836 0 42.8478 0C42.8478 0 395.152 0 395.152 0C418.816 0 438 16.0176 438 35.7764C438 35.7764 438 106.995 438 106.995C438 122.86 425.516 136.931 407.082 140.775C346.871 153.333 283.868 160 219 160Z" />
      <path d="M30.9188 140.775C91.1285 153.333 154.132 160 219 160C283.868 160 346.871 153.333 407.082 140.775C425.516 136.931 438 122.86 438 106.995L438 35.7764C438 16.0176 418.816 0 395.152 0L42.8478 0C19.1836 0 0 16.0176 0 35.7764L0 106.995C0 122.86 12.4844 136.931 30.9188 140.775ZM406.98 140.286Q314.852 159.5 219 159.5Q123.152 159.5 31.0209 140.286Q17.4401 137.454 8.91684 128.057Q0.5 118.778 0.5 106.995L0.5 35.7764Q0.5 21.1912 12.8703 10.8624Q25.2809 0.499969 42.8478 0.5L395.152 0.5Q412.72 0.5 425.13 10.8625Q437.5 21.1916 437.5 35.7764L437.5 106.995Q437.5 118.778 429.083 128.057Q420.561 137.454 406.98 140.286Z" fill="#000000" fill-rule="evenodd" />
    </g>
  </g>
</svg>