<svg width="316" height="59" viewBox="0 0 316 59" fill="none" xmlns="http://www.w3.org/2000/svg">
<path d="M158.5 0C206.693 0 253.63 5.37881 298.744 15.5664C308.633 17.7996 315.5 26.6872 315.5 36.8254C315.5 49.0721 305.572 59 293.325 59H22.548C10.3712 59 0.5 49.1288 0.5 36.952C0.5 26.8851 7.30942 18.0566 17.125 15.8212C62.5853 5.46775 109.904 0 158.5 0Z" fill="#6750A4" fill-opacity="0.85"/>
<path d="M158.5 0.5C206.656 0.5 253.556 5.87429 298.634 16.0537C308.287 18.2336 315 26.9125 315 36.8252C315 48.7957 305.296 58.5 293.325 58.5H22.5479C10.6473 58.4999 1.00008 48.8527 1 36.9521C1 27.1104 7.6563 18.4904 17.2363 16.3086C62.6604 5.96347 109.942 0.5 158.5 0.5Z" stroke="white" stroke-opacity="0.7"/>
</svg>
