<?xml version="1.0" encoding="utf-8"?>
<svg width="396" height="59" viewBox="0 0 396 59" fill="none" xmlns="http://www.w3.org/2000/svg">
  <g>
    <path d="M198 0C258.394 0 317.214 5.37881 373.749 15.5664C386.141 17.7996 394.747 26.6872 394.747 36.8254C394.747 49.0721 382.305 59 366.958 59C366.958 59 27.6298 59 27.6298 59C12.3702 59 0 49.1288 0 36.952C0 26.8851 8.53332 18.0566 20.8339 15.8212C77.8031 5.46775 137.101 0 198 0Z" fill="#FF9B9B" transform="translate(0.627 0)" />
    <path d="M197.373 0C257.721 0 316.494 5.37429 372.984 15.5537C385.081 17.7336 393.494 26.4125 393.494 36.3252C393.494 48.2957 381.333 58 366.331 58C366.331 58 27.0031 58 27.0031 58C12.0897 57.9999 0.000100255 48.3527 0 36.4521C0 26.6104 8.34144 17.9904 20.3468 15.8086C77.2706 5.46347 136.522 0 197.373 0Z" fill="none" stroke-width="1" stroke="#FFFFFF" transform="translate(1.253 0.5)" />
    <path d="M2.11523 23.25L2.11523 5.79492L8.21484 5.79492Q10.0371 5.79492 11.2207 6.42188Q12.4102 7.04883 12.9902 8.10352Q13.5703 9.15234 13.5703 10.4297Q13.5703 11.5547 13.1719 12.293Q12.7734 13.0254 12.1289 13.4531Q11.4902 13.875 10.7402 14.0801L10.7402 14.25Q11.5371 14.3027 12.3457 14.8125Q13.1602 15.3223 13.7051 16.2773Q14.25 17.2324 14.25 18.6152Q14.25 19.9277 13.6523 20.9766Q13.0547 22.0254 11.7656 22.6406Q10.4824 23.25 8.41992 23.25L2.11523 23.25ZM4.22461 21.375L8.41992 21.375Q10.4941 21.375 11.3672 20.5723Q12.2402 19.7637 12.2402 18.6152Q12.2402 17.7246 11.7891 16.9746Q11.3379 16.2188 10.5 15.7617Q9.66211 15.3047 8.52539 15.3047L4.22461 15.3047L4.22461 21.375ZM4.22461 13.4648L8.15039 13.4648Q9.58008 13.4648 10.5645 12.6387Q11.5547 11.8125 11.5547 10.4297Q11.5547 9.28125 10.752 8.47852Q9.95508 7.66992 8.21484 7.66992L4.22461 7.66992L4.22461 13.4648ZM22.7738 23.5254Q20.9984 23.5254 19.6625 22.6816Q18.3324 21.8379 17.5824 20.3203Q16.8382 18.8027 16.8382 16.7754Q16.8382 14.7246 17.5824 13.2012Q18.3324 11.6777 19.6625 10.834Q20.9984 9.99023 22.7738 9.99023Q24.5433 9.99023 25.8793 10.834Q27.2152 11.6777 27.9593 13.2012Q28.7035 14.7246 28.7035 16.7754Q28.7035 18.8027 27.9593 20.3203Q27.2152 21.8379 25.8793 22.6816Q24.5433 23.5254 22.7738 23.5254ZM22.7738 21.7148Q24.1214 21.7148 24.9886 21.0293Q25.8558 20.3379 26.2718 19.2129Q26.6937 18.0879 26.6937 16.7754Q26.6937 15.4629 26.2718 14.332Q25.8558 13.1953 24.9886 12.498Q24.1214 11.7949 22.7738 11.7949Q21.4261 11.7949 20.5531 12.498Q19.6859 13.1953 19.2699 14.332Q18.8539 15.4629 18.8539 16.7754Q18.8539 18.0879 19.2699 19.2129Q19.6859 20.3379 20.5531 21.0293Q21.4261 21.7148 22.7738 21.7148ZM37.092 23.5254Q35.3166 23.5254 33.9806 22.6816Q32.6506 21.8379 31.9006 20.3203Q31.1564 18.8027 31.1564 16.7754Q31.1564 14.7246 31.9006 13.2012Q32.6506 11.6777 33.9806 10.834Q35.3166 9.99023 37.092 9.99023Q38.8615 9.99023 40.1974 10.834Q41.5334 11.6777 42.2775 13.2012Q43.0217 14.7246 43.0217 16.7754Q43.0217 18.8027 42.2775 20.3203Q41.5334 21.8379 40.1974 22.6816Q38.8615 23.5254 37.092 23.5254ZM37.092 21.7148Q38.4396 21.7148 39.3068 21.0293Q40.174 20.3379 40.59 19.2129Q41.0119 18.0879 41.0119 16.7754Q41.0119 15.4629 40.59 14.332Q40.174 13.1953 39.3068 12.498Q38.4396 11.7949 37.092 11.7949Q35.7443 11.7949 34.8713 12.498Q34.0041 13.1953 33.5881 14.332Q33.1721 15.4629 33.1721 16.7754Q33.1721 18.0879 33.5881 19.2129Q34.0041 20.3379 34.8713 21.0293Q35.7443 21.7148 37.092 21.7148ZM46.0898 23.25L46.0898 5.79492L48.0996 5.79492L48.0996 15.9902L48.3398 15.9902L54.0703 10.1602L56.5547 10.1602L51.0234 15.75L56.9648 23.25L54.4102 23.25L49.5059 17.0449L48.0996 18.3516L48.0996 23.25L46.0898 23.25Z" fill="#000000" transform="translate(169 15)" />
  </g>
</svg>