<?xml version="1.0" encoding="utf-8"?>
<svg width="438" height="180" viewBox="0 0 438 180" fill="none" xmlns="http://www.w3.org/2000/svg">
  <g>
    <path d="M417.433 0C428.791 0.000223726 438 7.73674 438 17.2803C438 17.2803 438 144 438 144C438 163.882 418.816 180 395.152 180C395.152 180 292.451 180 292.451 180C288.859 148.574 257.345 124 219 124C180.655 124 149.141 148.574 145.549 180C145.549 180 42.8478 180 42.8478 180C19.1836 180 0 163.882 0 144C0 144 0 17.2803 0 17.2803C0.000267622 7.73674 9.2084 0.00022404 20.5673 0C22.3186 0 24.062 0.189249 25.7582 0.555664C87.5254 13.9003 152.276 21 219 21C285.724 21 350.475 13.9003 412.241 0.555664C413.937 0.189249 415.681 0 417.433 0Z" fill="#785FBB" fill-opacity="0.4" />
  </g>
</svg>