<?xml version="1.0" encoding="utf-8"?>
<svg width="438" height="180" viewBox="0 0 438 180" fill="none" xmlns="http://www.w3.org/2000/svg">
  <g>
    <g fill="#FFFFFF" fill-opacity="0.4">
      <path d="M395.152 0C418.816 0 438 16.1177 438 36C438 36 438 162.72 438 162.72C438 172.263 428.791 180 417.433 180C415.681 180 413.937 179.811 412.241 179.444C350.475 166.1 285.724 159 219 159C152.276 159 87.5254 166.1 25.7582 179.444C24.062 179.811 22.3186 180 20.5673 180C9.2084 180 0.000267622 172.263 0 162.72C0 162.72 0 36 0 36C0 16.1177 19.1836 0 42.8478 0C42.8478 0 145.549 0 145.549 0C149.141 31.4263 180.655 56 219 56C257.345 56 288.859 31.4263 292.451 0C292.451 0 395.152 0 395.152 0Z" />
      <path d="M438 36C438 16.1177 418.816 0 395.152 0L292.451 0C288.859 31.4263 257.345 56 219 56C180.655 56 149.141 31.4263 145.549 0L42.8478 0C19.1836 0 0 16.1177 0 36L0 162.72C0.000267622 172.263 9.2084 180 20.5673 180C22.3186 180 24.062 179.811 25.7582 179.444C87.5254 166.1 152.276 159 219 159C285.724 159 350.475 166.1 412.241 179.444C413.937 179.811 415.681 180 417.433 180C428.791 180 438 172.263 438 162.72L438 36ZM145.105 0.5L42.8478 0.500004Q25.2818 0.5 12.8715 10.927Q0.5 21.3213 0.5 36L0.499998 162.72Q0.500191 169.645 6.3458 174.556Q12.2304 179.5 20.5673 179.5Q23.1352 179.5 25.6526 178.955Q120.34 158.5 219 158.5Q317.664 158.5 412.347 178.955Q414.864 179.5 417.433 179.5Q425.77 179.5 431.654 174.556Q437.5 169.644 437.5 162.72L437.5 36Q437.5 21.3215 425.128 10.927Q412.718 0.5 395.152 0.5L292.895 0.5Q290.021 24.093 269.062 40.1815Q247.804 56.5 219 56.5Q190.196 56.5 168.938 40.1815Q147.979 24.093 145.105 0.5Z" fill="#808080" fill-rule="evenodd" />
    </g>
  </g>
</svg>