<?xml version="1.0" encoding="utf-8"?>
<svg width="438" height="180" viewBox="0 0 438 180" fill="none" xmlns="http://www.w3.org/2000/svg">
  <g>
    <g fill="#FFFFFF" fill-opacity="0.4">
      <path d="M438 162.719C438 172.263 428.791 180 417.432 180C415.681 180 413.937 179.811 412.241 179.445C350.474 166.1 285.724 159 219 159C152.276 159 87.5258 166.1 25.7587 179.445C24.0625 179.811 22.3192 180 20.5678 180C9.20851 180 0 172.263 0 162.719C0 162.719 0 36 0 36C0 16.1177 19.1837 0 42.8478 0C42.8478 0 395.152 0 395.152 0C418.816 0 438 16.1178 438 36C438 36 438 162.719 438 162.719Z" />
      <path d="M417.432 180C428.791 180 438 172.263 438 162.719L438 36C438 16.1178 418.816 0 395.152 0L42.8478 0C19.1837 0 0 16.1177 0 36L0 162.719C0 172.263 9.20851 180 20.5678 180C22.3192 180 24.0625 179.811 25.7587 179.445C87.5258 166.1 152.276 159 219 159C285.724 159 350.474 166.1 412.241 179.445C413.937 179.811 415.681 180 417.432 180ZM437.5 36L437.5 162.719Q437.5 169.644 431.654 174.556Q425.769 179.5 417.432 179.5Q414.866 179.5 412.347 178.956Q317.672 158.5 219 158.5Q120.336 158.5 25.6531 178.956Q23.1335 179.5 20.5678 179.5Q12.2305 179.5 6.3458 174.556Q0.5 169.644 0.499998 162.719L0.5 36Q0.5 21.3212 12.8715 10.927Q25.2819 0.5 42.8478 0.500004L395.152 0.5Q412.718 0.5 425.128 10.927Q437.5 21.3215 437.5 36Z" fill="#808080" fill-rule="evenodd" />
    </g>
  </g>
</svg>