<svg width="368" height="180" viewBox="0 0 368 180" fill="none" xmlns="http://www.w3.org/2000/svg">
<path d="M332 0C351.882 0 368 16.1177 368 36V162.72C368 172.263 360.263 180 350.72 180C349.248 180 347.783 179.811 346.358 179.444C294.463 166.1 240.06 159 184 159C127.94 159 73.5373 166.1 21.6416 179.444C20.2165 179.811 18.7517 180 17.2803 180C7.73674 180 0.000224851 172.263 0 162.72V36C0 16.1177 16.1177 0 36 0H122.288C125.306 31.4263 151.783 56 184 56C216.217 56 242.694 31.4263 245.712 0H332Z" fill="#E8DEF8" fill-opacity="0.85"/>
</svg>
